<svg id="图层_1" data-name="图层 1" xmlns="http://www.w3.org/2000/svg" viewBox="0 0 863.7 370.15">
  <defs>
    <style>
      .st0 {
      fill: url(#_未命名的渐变);
      }
    </style>
    <linearGradient id="_未命名的渐变" data-name="未命名的渐变" x1="431.2" y1="593.6" x2="432.6" y2="592.2" gradientTransform="translate(-338410.1 254469.4) scale(784.6 -428.3)" gradientUnits="userSpaceOnUse">
      <stop offset="0" stop-color="#5b2b82"/>
      <stop offset=".5" stop-color="#5b2b82"/>
      <stop offset="1" stop-color="#6cff00"/>
    </linearGradient>
  </defs>
  <polygon class="st0" points="233.33 296.82 196.15 370.15 0 370.15 184.3 0.08 314.96 0.08 341.93 69.12 380.15 202.15 409.78 269.71 318.52 270.3 247.41 99.93 157.93 296.38 233.33 296.82"/>
  <path class="st0" d="M337.78,623.45l-37.11,73.63H584.15c68.44,0,126.81-44.45,126.81-99.26,0-24.75-12.8-49.27-34.66-68.45-26.56-23.3-65-39.77-91.86-52.44-48.88-23.11-77.25-34.15-77.25-51.93s14.88-19.77,29.33-19.77H756.74c38.45,0,72.89,2.44,72.89,33.55s-31.56,32.67-42,32.67S631.41,473,631.41,473s32.44,12.67,60.22,33.56,37.78,44.59,37.78,44.59h38c20.66,0,69.33,1.41,69.33,37.85s-38.44,34.23-38.44,34.23H731.19s-3.34,17.77-22.23,40a136.35,136.35,0,0,1-41.33,32.66s113.56,1.19,149.11,1.19,127.11-19.85,127.11-95.85S881.41,507,881.41,507s50-19.11,50-76S871.85,327.89,786.52,327.89,562.74,327,529,327s-87.63-5.33-114.29,71.11S456.3,526.56,456.3,526.56l121.55,51.89s19.78,7.22,19.34,24.78S577.63,623,577.63,623Z" transform="translate(-80.15 -326.92)"/>
</svg>
